<svg width="1360" height="114" viewBox="0 0 1360 114" fill="none" xmlns="http://www.w3.org/2000/svg">
<path d="M2.00287 46.5312H3.36792V37.5772H3.4573L7.16244 46.5312H8.39749L12.1026 37.5772H12.192V46.5312H13.5571V34.8064H11.8589L7.84496 44.5893H7.71496L3.70106 34.8064H2.00287V46.5312ZM19.9679 46.6856C22.4624 46.6856 24.0062 44.9631 24.0062 42.1598V42.1436C24.0062 39.3322 22.4624 37.6178 19.9679 37.6178C17.4735 37.6178 15.9296 39.3322 15.9296 42.1436V42.1598C15.9296 44.9631 17.4735 46.6856 19.9679 46.6856ZM19.9679 45.4343C18.3104 45.4343 17.3759 44.2237 17.3759 42.1598V42.1436C17.3759 40.0716 18.3104 38.8691 19.9679 38.8691C21.6255 38.8691 22.5599 40.0716 22.5599 42.1436V42.1598C22.5599 44.2237 21.6255 45.4343 19.9679 45.4343ZM26.2 46.5312H27.6138V41.1035C27.6138 39.8197 28.5726 38.9666 29.9214 38.9666C30.2302 38.9666 30.4983 38.9991 30.7908 39.0478V37.6747C30.6527 37.6503 30.3521 37.6178 30.0839 37.6178C28.8976 37.6178 28.077 38.1541 27.7438 39.0722H27.6138V37.7722H26.2V46.5312ZM35.8691 46.6856C37.933 46.6856 39.1843 45.5156 39.4849 44.3293L39.5012 44.2643H38.0874L38.0549 44.3374C37.8192 44.8656 37.0879 45.4262 35.9017 45.4262C34.3416 45.4262 33.3422 44.3699 33.3016 42.558H39.6068V42.0055C39.6068 39.3891 38.1605 37.6178 35.7798 37.6178C33.3991 37.6178 31.8552 39.4704 31.8552 42.1761V42.1842C31.8552 44.9306 33.3666 46.6856 35.8691 46.6856ZM35.7716 38.8772C37.0636 38.8772 38.0224 39.6979 38.1686 41.4286H33.3259C33.4803 39.7629 34.4716 38.8772 35.7716 38.8772ZM48.1709 46.5312H49.5847L51.5347 39.7547H51.6648L53.623 46.5312H55.0449L57.4987 37.7722H56.093L54.3705 44.7762H54.2405L52.2823 37.7722H50.9416L48.9834 44.7762H48.8534L47.1308 37.7722H45.717L48.1709 46.5312ZM61.5289 46.6856C62.707 46.6856 63.6252 46.1737 64.1777 45.2393H64.3077V46.5312H65.7215V40.5348C65.7215 38.7147 64.5271 37.6178 62.3901 37.6178C60.5213 37.6178 59.1888 38.5441 58.9613 39.9173L58.9531 39.966H60.3669L60.3751 39.9416C60.6026 39.2591 61.2932 38.8691 62.3414 38.8691C63.6496 38.8691 64.3077 39.4541 64.3077 40.5348V41.3311L61.797 41.4854C59.7575 41.6073 58.6037 42.5092 58.6037 44.0693V44.0855C58.6037 45.6781 59.8632 46.6856 61.5289 46.6856ZM60.05 44.053V44.0368C60.05 43.1674 60.6351 42.6961 61.9676 42.6149L64.3077 42.4686V43.2649C64.3077 44.5162 63.2595 45.4587 61.8214 45.4587C60.8057 45.4587 60.05 44.9387 60.05 44.053ZM68.7279 49.6026C70.2798 49.6026 71.0029 49.0338 71.7261 47.0675L75.1469 37.7722H73.6599L71.263 44.9793H71.133L68.7279 37.7722H67.2166L70.4586 46.5394L70.296 47.0594C69.9792 48.0669 69.4916 48.4326 68.6872 48.4326C68.4922 48.4326 68.2728 48.4244 68.1022 48.3919V49.5539C68.2972 49.5864 68.541 49.6026 68.7279 49.6026ZM79.7783 46.6856C81.769 46.6856 83.2884 45.605 83.2884 44.0449V44.0287C83.2884 42.7774 82.4921 42.0623 80.8427 41.6642L79.4939 41.3392C78.462 41.0873 78.0232 40.7135 78.0232 40.1204V40.1041C78.0232 39.3322 78.787 38.796 79.827 38.796C80.8833 38.796 81.5658 39.2754 81.7527 39.966H83.1421C82.9471 38.5359 81.6715 37.6178 79.8351 37.6178C77.9744 37.6178 76.5769 38.7147 76.5769 40.1691V40.1773C76.5769 41.4367 77.3163 42.1517 78.9576 42.5417L80.3145 42.8667C81.3952 43.1267 81.8421 43.5411 81.8421 44.1343V44.1505C81.8421 44.9468 81.0052 45.5075 79.827 45.5075C78.7057 45.5075 78.007 45.0281 77.7713 44.2968H76.325C76.4875 45.7431 77.8282 46.6856 79.7783 46.6856ZM93.2745 46.5963C93.5507 46.5963 93.8189 46.5638 94.0951 46.515V45.3125C93.8351 45.3368 93.697 45.345 93.4451 45.345C92.5351 45.345 92.1776 44.9306 92.1776 43.8987V38.9422H94.0951V37.7722H92.1776V35.5052H90.715V37.7722H89.3337V38.9422H90.715V44.2562C90.715 45.93 91.4707 46.5963 93.2745 46.5963ZM99.6772 46.6856C102.172 46.6856 103.715 44.9631 103.715 42.1598V42.1436C103.715 39.3322 102.172 37.6178 99.6772 37.6178C97.1827 37.6178 95.6389 39.3322 95.6389 42.1436V42.1598C95.6389 44.9631 97.1827 46.6856 99.6772 46.6856ZM99.6772 45.4343C98.0196 45.4343 97.0852 44.2237 97.0852 42.1598V42.1436C97.0852 40.0716 98.0196 38.8691 99.6772 38.8691C101.335 38.8691 102.269 40.0716 102.269 42.1436V42.1598C102.269 44.2237 101.335 45.4343 99.6772 45.4343ZM113.596 46.6856C115.587 46.6856 117.106 45.605 117.106 44.0449V44.0287C117.106 42.7774 116.31 42.0623 114.66 41.6642L113.311 41.3392C112.28 41.0873 111.841 40.7135 111.841 40.1204V40.1041C111.841 39.3322 112.605 38.796 113.645 38.796C114.701 38.796 115.383 39.2754 115.57 39.966H116.96C116.765 38.5359 115.489 37.6178 113.653 37.6178C111.792 37.6178 110.394 38.7147 110.394 40.1691V40.1773C110.394 41.4367 111.134 42.1517 112.775 42.5417L114.132 42.8667C115.213 43.1267 115.66 43.5411 115.66 44.1343V44.1505C115.66 44.9468 114.823 45.5075 113.645 45.5075C112.523 45.5075 111.825 45.0281 111.589 44.2968H110.143C110.305 45.7431 111.646 46.6856 113.596 46.6856ZM119.381 46.5312H120.795V41.3473C120.795 39.8116 121.68 38.8691 123.078 38.8691C124.476 38.8691 125.126 39.6247 125.126 41.201V46.5312H126.539V40.8598C126.539 38.7797 125.443 37.6178 123.476 37.6178C122.184 37.6178 121.364 38.1622 120.925 39.0885H120.795V34.2945H119.381V46.5312ZM132.698 46.6856C135.193 46.6856 136.737 44.9631 136.737 42.1598V42.1436C136.737 39.3322 135.193 37.6178 132.698 37.6178C130.204 37.6178 128.66 39.3322 128.66 42.1436V42.1598C128.66 44.9631 130.204 46.6856 132.698 46.6856ZM132.698 45.4343C131.041 45.4343 130.106 44.2237 130.106 42.1598V42.1436C130.106 40.0716 131.041 38.8691 132.698 38.8691C134.356 38.8691 135.29 40.0716 135.29 42.1436V42.1598C135.29 44.2237 134.356 45.4343 132.698 45.4343ZM138.93 49.4564H140.344V45.1499H140.474C140.954 46.0844 142.002 46.6856 143.204 46.6856C145.431 46.6856 146.877 44.9062 146.877 42.1598V42.1436C146.877 39.4135 145.423 37.6178 143.204 37.6178C141.986 37.6178 141.011 38.1947 140.474 39.1697H140.344V37.7722H138.93V49.4564ZM142.879 45.4343C141.287 45.4343 140.312 44.183 140.312 42.1598V42.1436C140.312 40.1204 141.287 38.8691 142.879 38.8691C144.48 38.8691 145.431 40.1041 145.431 42.1436V42.1598C145.431 44.1993 144.48 45.4343 142.879 45.4343ZM150.241 40.3235C150.826 40.3235 151.297 39.8441 151.297 39.2672C151.297 38.6822 150.826 38.2109 150.241 38.2109C149.664 38.2109 149.185 38.6822 149.185 39.2672C149.185 39.8441 149.664 40.3235 150.241 40.3235ZM150.241 46.6125C150.826 46.6125 151.297 46.1331 151.297 45.5562C151.297 44.9712 150.826 44.4999 150.241 44.4999C149.664 44.4999 149.185 44.9712 149.185 45.5562C149.185 46.1331 149.664 46.6125 150.241 46.6125ZM320.701 46.6856C323.196 46.6856 324.74 44.9631 324.74 42.1598V42.1436C324.74 39.3322 323.196 37.6178 320.701 37.6178C318.207 37.6178 316.663 39.3322 316.663 42.1436V42.1598C316.663 44.9631 318.207 46.6856 320.701 46.6856ZM320.701 45.4343C319.044 45.4343 318.11 44.2237 318.11 42.1598V42.1436C318.11 40.0716 319.044 38.8691 320.701 38.8691C322.359 38.8691 323.293 40.0716 323.293 42.1436V42.1598C323.293 44.2237 322.359 45.4343 320.701 45.4343ZM326.934 46.5312H328.348V41.1035C328.348 39.8197 329.306 38.9666 330.655 38.9666C330.964 38.9666 331.232 38.9991 331.525 39.0478V37.6747C331.386 37.6503 331.086 37.6178 330.818 37.6178C329.631 37.6178 328.811 38.1541 328.478 39.0722H328.348V37.7722H326.934V46.5312ZM443.824 46.5312H445.238V41.3473C445.238 39.8116 446.124 38.8691 447.521 38.8691C448.919 38.8691 449.569 39.6247 449.569 41.201V46.5312H450.983V40.8598C450.983 38.7797 449.886 37.6178 447.92 37.6178C446.628 37.6178 445.807 38.1622 445.368 39.0885H445.238V37.7722H443.824V46.5312ZM457.117 46.6856C459.181 46.6856 460.432 45.5156 460.733 44.3293L460.749 44.2643H459.335L459.303 44.3374C459.067 44.8656 458.336 45.4262 457.15 45.4262C455.59 45.4262 454.59 44.3699 454.55 42.558H460.855V42.0055C460.855 39.3891 459.409 37.6178 457.028 37.6178C454.647 37.6178 453.103 39.4704 453.103 42.1761V42.1842C453.103 44.9306 454.615 46.6856 457.117 46.6856ZM457.02 38.8772C458.312 38.8772 459.27 39.6979 459.417 41.4286H454.574C454.728 39.7629 455.72 38.8772 457.02 38.8772ZM465.454 46.6856C466.632 46.6856 467.55 46.1737 468.103 45.2393H468.233V46.5312H469.647V40.5348C469.647 38.7147 468.452 37.6178 466.315 37.6178C464.446 37.6178 463.114 38.5441 462.886 39.9173L462.878 39.966H464.292L464.3 39.9416C464.528 39.2591 465.218 38.8691 466.266 38.8691C467.575 38.8691 468.233 39.4541 468.233 40.5348V41.3311L465.722 41.4854C463.683 41.6073 462.529 42.5092 462.529 44.0693V44.0855C462.529 45.6781 463.788 46.6856 465.454 46.6856ZM463.975 44.053V44.0368C463.975 43.1674 464.56 42.6961 465.893 42.6149L468.233 42.4686V43.2649C468.233 44.5162 467.185 45.4587 465.746 45.4587C464.731 45.4587 463.975 44.9387 463.975 44.053ZM472.23 46.5312H473.644V41.1035C473.644 39.8197 474.603 38.9666 475.952 38.9666C476.261 38.9666 476.529 38.9991 476.821 39.0478V37.6747C476.683 37.6503 476.382 37.6178 476.114 37.6178C474.928 37.6178 474.107 38.1541 473.774 39.0722H473.644V37.7722H472.23V46.5312ZM483.996 49.6026C485.548 49.6026 486.271 49.0338 486.994 47.0675L490.415 37.7722H488.928L486.531 44.9793H486.401L483.996 37.7722H482.484L485.726 46.5394L485.564 47.0594C485.247 48.0669 484.76 48.4326 483.955 48.4326C483.76 48.4326 483.541 48.4244 483.37 48.3919V49.5539C483.565 49.5864 483.809 49.6026 483.996 49.6026ZM495.558 46.6856C498.053 46.6856 499.596 44.9631 499.596 42.1598V42.1436C499.596 39.3322 498.053 37.6178 495.558 37.6178C493.064 37.6178 491.52 39.3322 491.52 42.1436V42.1598C491.52 44.9631 493.064 46.6856 495.558 46.6856ZM495.558 45.4343C493.9 45.4343 492.966 44.2237 492.966 42.1598V42.1436C492.966 40.0716 493.9 38.8691 495.558 38.8691C497.216 38.8691 498.15 40.0716 498.15 42.1436V42.1598C498.15 44.2237 497.216 45.4343 495.558 45.4343ZM504.723 46.6856C506.007 46.6856 506.893 46.1575 507.324 45.2231H507.454V46.5312H508.867V37.7722H507.454V42.9561C507.454 44.4918 506.633 45.4343 505.089 45.4343C503.692 45.4343 503.123 44.6787 503.123 43.1024V37.7722H501.709V43.4436C501.709 45.5156 502.733 46.6856 504.723 46.6856ZM512.662 46.6125C513.247 46.6125 513.718 46.1331 513.718 45.5562C513.718 44.9712 513.247 44.4999 512.662 44.4999C512.085 44.4999 511.606 44.9712 511.606 45.5562C511.606 46.1331 512.085 46.6125 512.662 46.6125Z" fill="#6E6E73"/>
<path d="M158.886 46.5312H160.349V41.4529H165.541V40.1529H160.349V36.1227H166.004V34.8064H158.886V46.5312ZM168.978 36.0821C169.514 36.0821 169.953 35.6433 169.953 35.1071C169.953 34.5708 169.514 34.132 168.978 34.132C168.442 34.132 168.003 34.5708 168.003 35.1071C168.003 35.6433 168.442 36.0821 168.978 36.0821ZM168.263 46.5312H169.677V37.7722H168.263V46.5312ZM172.342 46.5312H173.756V41.3473C173.756 39.8116 174.641 38.8691 176.039 38.8691C177.436 38.8691 178.086 39.6247 178.086 41.201V46.5312H179.5V40.8598C179.5 38.7797 178.403 37.6178 176.437 37.6178C175.145 37.6178 174.324 38.1622 173.886 39.0885H173.756V37.7722H172.342V46.5312ZM185.293 46.6856C186.512 46.6856 187.487 46.1087 188.024 45.1337H188.154V46.5312H189.567V34.2945H188.154V39.1535H188.024C187.544 38.2191 186.496 37.6178 185.293 37.6178C183.067 37.6178 181.621 39.3972 181.621 42.1436V42.1598C181.621 44.8899 183.075 46.6856 185.293 46.6856ZM185.619 45.4343C184.018 45.4343 183.067 44.1993 183.067 42.1598V42.1436C183.067 40.1041 184.018 38.8691 185.619 38.8691C187.211 38.8691 188.186 40.1204 188.186 42.1436V42.1598C188.186 44.183 187.211 45.4343 185.619 45.4343ZM199.367 46.6856C200.545 46.6856 201.463 46.1737 202.015 45.2393H202.145V46.5312H203.559V40.5348C203.559 38.7147 202.365 37.6178 200.228 37.6178C198.359 37.6178 197.027 38.5441 196.799 39.9173L196.791 39.966H198.205L198.213 39.9416C198.44 39.2591 199.131 38.8691 200.179 38.8691C201.487 38.8691 202.145 39.4541 202.145 40.5348V41.3311L199.635 41.4854C197.595 41.6073 196.441 42.5092 196.441 44.0693V44.0855C196.441 45.6781 197.701 46.6856 199.367 46.6856ZM197.888 44.053V44.0368C197.888 43.1674 198.473 42.6961 199.805 42.6149L202.145 42.4686V43.2649C202.145 44.5162 201.097 45.4587 199.659 45.4587C198.643 45.4587 197.888 44.9387 197.888 44.053ZM206.143 46.5312H207.557V41.3473C207.557 39.8116 208.442 38.8691 209.84 38.8691C211.238 38.8691 211.888 39.6247 211.888 41.201V46.5312H213.301V40.8598C213.301 38.7797 212.204 37.6178 210.238 37.6178C208.946 37.6178 208.126 38.1622 207.687 39.0885H207.557V37.7722H206.143V46.5312ZM219.785 46.5312H221.321L222.499 43.1755H227.163L228.341 46.5312H229.877L225.554 34.8064H224.108L219.785 46.5312ZM224.766 36.6996H224.896L226.733 41.9323H222.93L224.766 36.6996ZM231.754 49.4564H233.168V45.1499H233.298C233.777 46.0844 234.825 46.6856 236.028 46.6856C238.254 46.6856 239.701 44.9062 239.701 42.1598V42.1436C239.701 39.4135 238.246 37.6178 236.028 37.6178C234.809 37.6178 233.834 38.1947 233.298 39.1697H233.168V37.7722H231.754V49.4564ZM235.703 45.4343C234.11 45.4343 233.135 44.183 233.135 42.1598V42.1436C233.135 40.1204 234.11 38.8691 235.703 38.8691C237.304 38.8691 238.254 40.1041 238.254 42.1436V42.1598C238.254 44.1993 237.304 45.4343 235.703 45.4343ZM241.911 49.4564H243.324V45.1499H243.454C243.934 46.0844 244.982 46.6856 246.185 46.6856C248.411 46.6856 249.857 44.9062 249.857 42.1598V42.1436C249.857 39.4135 248.403 37.6178 246.185 37.6178C244.966 37.6178 243.991 38.1947 243.454 39.1697H243.324V37.7722H241.911V49.4564ZM245.86 45.4343C244.267 45.4343 243.292 44.183 243.292 42.1598V42.1436C243.292 40.1204 244.267 38.8691 245.86 38.8691C247.46 38.8691 248.411 40.1041 248.411 42.1436V42.1598C248.411 44.1993 247.46 45.4343 245.86 45.4343ZM252.148 46.5312H253.562V34.2945H252.148V46.5312ZM259.851 46.6856C261.915 46.6856 263.166 45.5156 263.467 44.3293L263.483 44.2643H262.07L262.037 44.3374C261.801 44.8656 261.07 45.4262 259.884 45.4262C258.324 45.4262 257.324 44.3699 257.284 42.558H263.589V42.0055C263.589 39.3891 262.143 37.6178 259.762 37.6178C257.381 37.6178 255.837 39.4704 255.837 42.1761V42.1842C255.837 44.9306 257.349 46.6856 259.851 46.6856ZM259.754 38.8772C261.046 38.8772 262.005 39.6979 262.151 41.4286H257.308C257.462 39.7629 258.454 38.8772 259.754 38.8772ZM274.485 46.8075C277.101 46.8075 278.816 45.4425 278.816 43.2486V43.2405C278.816 41.5504 277.849 40.5673 275.403 40.0229L274.103 39.7304C272.51 39.381 271.869 38.7472 271.869 37.8128V37.8047C271.869 36.5777 272.998 35.8871 274.461 35.879C275.988 35.8708 276.963 36.6346 277.126 37.6665L277.142 37.7722H278.604L278.596 37.6584C278.474 35.9115 276.841 34.5302 274.501 34.5302C272.08 34.5302 270.382 35.9033 270.374 37.8453V37.8534C270.374 39.5516 271.389 40.6323 273.737 41.1523L275.037 41.4367C276.646 41.7942 277.321 42.4605 277.321 43.4355V43.4436C277.321 44.6381 276.159 45.4587 274.566 45.4587C272.876 45.4587 271.657 44.7193 271.552 43.5493L271.544 43.4599H270.081L270.089 43.5493C270.26 45.4587 271.917 46.8075 274.485 46.8075ZM284.187 46.5963C284.463 46.5963 284.731 46.5638 285.007 46.515V45.3125C284.747 45.3368 284.609 45.345 284.357 45.345C283.447 45.345 283.09 44.9306 283.09 43.8987V38.9422H285.007V37.7722H283.09V35.5052H281.627V37.7722H280.246V38.9422H281.627V44.2562C281.627 45.93 282.383 46.5963 284.187 46.5963ZM290.589 46.6856C293.084 46.6856 294.628 44.9631 294.628 42.1598V42.1436C294.628 39.3322 293.084 37.6178 290.589 37.6178C288.095 37.6178 286.551 39.3322 286.551 42.1436V42.1598C286.551 44.9631 288.095 46.6856 290.589 46.6856ZM290.589 45.4343C288.932 45.4343 287.997 44.2237 287.997 42.1598V42.1436C287.997 40.0716 288.932 38.8691 290.589 38.8691C292.247 38.8691 293.181 40.0716 293.181 42.1436V42.1598C293.181 44.2237 292.247 45.4343 290.589 45.4343ZM296.821 46.5312H298.235V41.1035C298.235 39.8197 299.194 38.9666 300.543 38.9666C300.851 38.9666 301.12 38.9991 301.412 39.0478V37.6747C301.274 37.6503 300.973 37.6178 300.705 37.6178C299.519 37.6178 298.698 38.1541 298.365 39.0722H298.235V37.7722H296.821V46.5312ZM306.49 46.6856C308.554 46.6856 309.806 45.5156 310.106 44.3293L310.122 44.2643H308.709L308.676 44.3374C308.441 44.8656 307.709 45.4262 306.523 45.4262C304.963 45.4262 303.963 44.3699 303.923 42.558H310.228V42.0055C310.228 39.3891 308.782 37.6178 306.401 37.6178C304.02 37.6178 302.477 39.4704 302.477 42.1761V42.1842C302.477 44.9306 303.988 46.6856 306.49 46.6856ZM306.393 38.8772C307.685 38.8772 308.644 39.6979 308.79 41.4286H303.947C304.102 39.7629 305.093 38.8772 306.393 38.8772ZM341.551 46.6856C344.046 46.6856 345.59 44.9631 345.59 42.1598V42.1436C345.59 39.3322 344.046 37.6178 341.551 37.6178C339.057 37.6178 337.513 39.3322 337.513 42.1436V42.1598C337.513 44.9631 339.057 46.6856 341.551 46.6856ZM341.551 45.4343C339.894 45.4343 338.959 44.2237 338.959 42.1598V42.1436C338.959 40.0716 339.894 38.8691 341.551 38.8691C343.209 38.8691 344.143 40.0716 344.143 42.1436V42.1598C344.143 44.2237 343.209 45.4343 341.551 45.4343ZM350.895 46.5963C351.171 46.5963 351.44 46.5638 351.716 46.515V45.3125C351.456 45.3368 351.318 45.345 351.066 45.345C350.156 45.345 349.798 44.9306 349.798 43.8987V38.9422H351.716V37.7722H349.798V35.5052H348.336V37.7722H346.954V38.9422H348.336V44.2562C348.336 45.93 349.091 46.5963 350.895 46.5963ZM353.91 46.5312H355.323V41.3473C355.323 39.8116 356.209 38.8691 357.607 38.8691C359.004 38.8691 359.654 39.6247 359.654 41.201V46.5312H361.068V40.8598C361.068 38.7797 359.971 37.6178 358.005 37.6178C356.713 37.6178 355.892 38.1622 355.453 39.0885H355.323V34.2945H353.91V46.5312ZM367.203 46.6856C369.267 46.6856 370.518 45.5156 370.819 44.3293L370.835 44.2643H369.421L369.389 44.3374C369.153 44.8656 368.422 45.4262 367.235 45.4262C365.675 45.4262 364.676 44.3699 364.635 42.558H370.941V42.0055C370.941 39.3891 369.494 37.6178 367.114 37.6178C364.733 37.6178 363.189 39.4704 363.189 42.1761V42.1842C363.189 44.9306 364.7 46.6856 367.203 46.6856ZM367.105 38.8772C368.397 38.8772 369.356 39.6979 369.502 41.4286H364.66C364.814 39.7629 365.805 38.8772 367.105 38.8772ZM373.134 46.5312H374.548V41.1035C374.548 39.8197 375.507 38.9666 376.855 38.9666C377.164 38.9666 377.432 38.9991 377.725 39.0478V37.6747C377.587 37.6503 377.286 37.6178 377.018 37.6178C375.832 37.6178 375.011 38.1541 374.678 39.0722H374.548V37.7722H373.134V46.5312ZM384.152 46.5312H385.566V41.1035C385.566 39.8197 386.525 38.9666 387.874 38.9666C388.182 38.9666 388.45 38.9991 388.743 39.0478V37.6747C388.605 37.6503 388.304 37.6178 388.036 37.6178C386.85 37.6178 386.029 38.1541 385.696 39.0722H385.566V37.7722H384.152V46.5312ZM393.821 46.6856C395.885 46.6856 397.136 45.5156 397.437 44.3293L397.453 44.2643H396.04L396.007 44.3374C395.771 44.8656 395.04 45.4262 393.854 45.4262C392.294 45.4262 391.294 44.3699 391.254 42.558H397.559V42.0055C397.559 39.3891 396.113 37.6178 393.732 37.6178C391.351 37.6178 389.807 39.4704 389.807 42.1761V42.1842C389.807 44.9306 391.319 46.6856 393.821 46.6856ZM393.724 38.8772C395.016 38.8772 395.975 39.6979 396.121 41.4286H391.278C391.432 39.7629 392.424 38.8772 393.724 38.8772ZM402.865 46.5963C403.141 46.5963 403.409 46.5638 403.685 46.515V45.3125C403.425 45.3368 403.287 45.345 403.035 45.345C402.125 45.345 401.768 44.9306 401.768 43.8987V38.9422H403.685V37.7722H401.768V35.5052H400.305V37.7722H398.924V38.9422H400.305V44.2562C400.305 45.93 401.061 46.5963 402.865 46.5963ZM408.203 46.6856C409.381 46.6856 410.299 46.1737 410.852 45.2393H410.982V46.5312H412.396V40.5348C412.396 38.7147 411.201 37.6178 409.064 37.6178C407.195 37.6178 405.863 38.5441 405.635 39.9173L405.627 39.966H407.041L407.049 39.9416C407.277 39.2591 407.967 38.8691 409.016 38.8691C410.324 38.8691 410.982 39.4541 410.982 40.5348V41.3311L408.471 41.4854C406.432 41.6073 405.278 42.5092 405.278 44.0693V44.0855C405.278 45.6781 406.537 46.6856 408.203 46.6856ZM406.724 44.053V44.0368C406.724 43.1674 407.309 42.6961 408.642 42.6149L410.982 42.4686V43.2649C410.982 44.5162 409.934 45.4587 408.496 45.4587C407.48 45.4587 406.724 44.9387 406.724 44.053ZM415.727 36.0821C416.264 36.0821 416.702 35.6433 416.702 35.1071C416.702 34.5708 416.264 34.132 415.727 34.132C415.191 34.132 414.752 34.5708 414.752 35.1071C414.752 35.6433 415.191 36.0821 415.727 36.0821ZM415.012 46.5312H416.426V37.7722H415.012V46.5312ZM419.172 46.5312H420.586V34.2945H419.172V46.5312ZM426.875 46.6856C428.939 46.6856 430.19 45.5156 430.491 44.3293L430.507 44.2643H429.093L429.061 44.3374C428.825 44.8656 428.094 45.4262 426.908 45.4262C425.348 45.4262 424.348 44.3699 424.308 42.558H430.613V42.0055C430.613 39.3891 429.167 37.6178 426.786 37.6178C424.405 37.6178 422.861 39.4704 422.861 42.1761V42.1842C422.861 44.9306 424.373 46.6856 426.875 46.6856ZM426.778 38.8772C428.07 38.8772 429.028 39.6979 429.175 41.4286H424.332C424.486 39.7629 425.478 38.8772 426.778 38.8772ZM432.806 46.5312H434.22V41.1035C434.22 39.8197 435.179 38.9666 436.528 38.9666C436.836 38.9666 437.105 38.9991 437.397 39.0478V37.6747C437.259 37.6503 436.958 37.6178 436.69 37.6178C435.504 37.6178 434.683 38.1541 434.35 39.0722H434.22V37.7722H432.806V46.5312Z" fill="#0066CC"/>
<path d="M526.231 46.8075C529.579 46.8075 531.61 44.4105 531.61 40.6729V40.6567C531.61 36.9028 529.563 34.5302 526.231 34.5302C522.916 34.5302 520.853 36.8946 520.853 40.6567V40.6729C520.853 44.4187 522.868 46.8075 526.231 46.8075ZM526.231 45.4587C523.794 45.4587 522.348 43.5736 522.348 40.6729V40.6567C522.348 37.7315 523.843 35.879 526.231 35.879C528.628 35.879 530.115 37.7315 530.115 40.6567V40.6729C530.115 43.5736 528.637 45.4587 526.231 45.4587ZM533.967 46.5312H535.381V41.1035C535.381 39.8197 536.339 38.9666 537.688 38.9666C537.997 38.9666 538.265 38.9991 538.558 39.0478V37.6747C538.419 37.6503 538.119 37.6178 537.851 37.6178C536.664 37.6178 535.844 38.1541 535.511 39.0722H535.381V37.7722H533.967V46.5312ZM548.568 46.6856C550.672 46.6856 551.851 45.5562 552.208 43.9718L552.224 43.8824L550.827 43.8905L550.811 43.9393C550.486 44.9143 549.738 45.4343 548.56 45.4343C547 45.4343 545.992 44.1424 545.992 42.1273V42.1111C545.992 40.1366 546.984 38.8691 548.56 38.8691C549.819 38.8691 550.599 39.5679 550.819 40.4291L550.827 40.4535H552.232L552.224 40.4048C551.964 38.8447 550.689 37.6178 548.56 37.6178C546.106 37.6178 544.546 39.3891 544.546 42.1111V42.1273C544.546 44.9062 546.114 46.6856 548.568 46.6856ZM556.701 46.6856C557.88 46.6856 558.798 46.1737 559.35 45.2393H559.48V46.5312H560.894V40.5348C560.894 38.7147 559.7 37.6178 557.563 37.6178C555.694 37.6178 554.361 38.5441 554.134 39.9173L554.126 39.966H555.539L555.548 39.9416C555.775 39.2591 556.466 38.8691 557.514 38.8691C558.822 38.8691 559.48 39.4541 559.48 40.5348V41.3311L556.97 41.4854C554.93 41.6073 553.776 42.5092 553.776 44.0693V44.0855C553.776 45.6781 555.036 46.6856 556.701 46.6856ZM555.223 44.053V44.0368C555.223 43.1674 555.808 42.6961 557.14 42.6149L559.48 42.4686V43.2649C559.48 44.5162 558.432 45.4587 556.994 45.4587C555.978 45.4587 555.223 44.9387 555.223 44.053ZM563.559 46.5312H564.973V34.2945H563.559V46.5312ZM567.768 46.5312H569.182V34.2945H567.768V46.5312ZM579.436 46.5312H580.899V34.8064H579.444L576.324 37.049V38.5928L579.306 36.4315H579.436V46.5312ZM584.173 42.4686H589.633V41.1523H584.173V42.4686ZM596.142 46.7263C598.628 46.7263 600.399 45.3287 600.399 43.3624V43.3461C600.399 41.8998 599.384 40.6973 597.88 40.3479V40.3154C599.164 39.9173 599.977 38.9422 599.977 37.7072V37.6909C599.977 35.9196 598.36 34.6114 596.142 34.6114C593.923 34.6114 592.306 35.9196 592.306 37.6909V37.7072C592.306 38.9422 593.119 39.9173 594.403 40.3154V40.3479C592.9 40.6973 591.884 41.8998 591.884 43.3461V43.3624C591.884 45.3287 593.655 46.7263 596.142 46.7263ZM596.142 39.771C594.728 39.771 593.761 38.9666 593.761 37.829V37.8128C593.761 36.6753 594.728 35.8709 596.142 35.8709C597.555 35.8709 598.522 36.6753 598.522 37.8128V37.829C598.522 38.9666 597.555 39.771 596.142 39.771ZM596.142 45.4506C594.525 45.4506 593.371 44.5406 593.371 43.273V43.2568C593.371 41.973 594.517 41.0548 596.142 41.0548C597.767 41.0548 598.912 41.973 598.912 43.2568V43.273C598.912 44.5406 597.759 45.4506 596.142 45.4506ZM606.688 46.8075C609.28 46.8075 610.84 44.443 610.84 40.6729V40.6567C610.84 36.8865 609.28 34.5302 606.688 34.5302C604.096 34.5302 602.552 36.8865 602.552 40.6567V40.6729C602.552 44.443 604.096 46.8075 606.688 46.8075ZM606.688 45.5318C605.006 45.5318 604.023 43.663 604.023 40.6729V40.6567C604.023 37.6665 605.006 35.814 606.688 35.814C608.37 35.814 609.37 37.6665 609.37 40.6567V40.6729C609.37 43.663 608.37 45.5318 606.688 45.5318ZM617.17 46.8075C619.762 46.8075 621.322 44.443 621.322 40.6729V40.6567C621.322 36.8865 619.762 34.5302 617.17 34.5302C614.578 34.5302 613.034 36.8865 613.034 40.6567V40.6729C613.034 44.443 614.578 46.8075 617.17 46.8075ZM617.17 45.5318C615.488 45.5318 614.505 43.663 614.505 40.6729V40.6567C614.505 37.6665 615.488 35.814 617.17 35.814C618.852 35.814 619.851 37.6665 619.851 40.6567V40.6729C619.851 43.663 618.852 45.5318 617.17 45.5318ZM623.613 42.4686H629.073V41.1523H623.613V42.4686ZM631.763 46.5312H633.128V37.5772H633.217L636.923 46.5312H638.158L641.863 37.5772H641.952V46.5312H643.317V34.8064H641.619L637.605 44.5893H637.475L633.461 34.8064H631.763V46.5312ZM649.533 46.5312H650.996V41.4854L655.156 34.8064H653.49L650.329 40.0148H650.199L647.038 34.8064H645.373L649.533 41.4854V46.5312ZM655.611 42.4686H661.071V41.1523H655.611V42.4686ZM662.582 46.5312H664.118L665.296 43.1755H669.96L671.138 46.5312H672.674L668.351 34.8064H666.905L662.582 46.5312ZM667.563 36.6996H667.693L669.529 41.9323H665.727L667.563 36.6996ZM674.729 46.5312H676.192V42.3467H679.15C681.352 42.3467 682.912 40.7948 682.912 38.5685V38.5522C682.912 36.3259 681.352 34.8064 679.15 34.8064H674.729V46.5312ZM678.776 36.1065C680.45 36.1065 681.417 37.0246 681.417 38.5685V38.5847C681.417 40.1285 680.45 41.0467 678.776 41.0467H676.192V36.1065H678.776ZM685.309 46.5312H686.771V42.3467H689.729C691.931 42.3467 693.491 40.7948 693.491 38.5685V38.5522C693.491 36.3259 691.931 34.8064 689.729 34.8064H685.309V46.5312ZM689.355 36.1065C691.029 36.1065 691.996 37.0246 691.996 38.5685V38.5847C691.996 40.1285 691.029 41.0467 689.355 41.0467H686.771V36.1065H689.355ZM695.888 46.5312H703.006V45.215H697.35V34.8064H695.888V46.5312ZM705.346 46.5312H712.61V45.215H706.808V41.1848H712.309V39.8848H706.808V36.1227H712.61V34.8064H705.346V46.5312ZM716.234 46.6125C716.819 46.6125 717.29 46.1331 717.29 45.5562C717.29 44.9712 716.819 44.4999 716.234 44.4999C715.657 44.4999 715.177 44.9712 715.177 45.5562C715.177 46.1331 715.657 46.6125 716.234 46.6125Z" fill="#6E6E73"/>
<path d="M0.507812 59.5312H1359.49" stroke="#D2D2D7"/>
<path d="M6.72367 80.8075C9.21814 80.8075 11.0707 79.4181 11.4607 77.273V77.2568H9.98192L9.96567 77.273C9.60003 78.6218 8.35686 79.4587 6.72367 79.4587C4.46484 79.4587 3.05103 77.6143 3.05103 74.681V74.6648C3.05103 71.7315 4.46484 69.879 6.71554 69.879C8.33248 69.879 9.58378 70.8296 9.97379 72.3328L9.98192 72.3491H11.4526L11.4607 72.3328C11.1113 70.0821 9.18564 68.5302 6.71554 68.5302C3.53043 68.5302 1.54785 70.8865 1.54785 74.6648V74.681C1.54785 78.4512 3.53855 80.8075 6.72367 80.8075ZM17.3353 80.6856C19.8298 80.6856 21.3736 78.9631 21.3736 76.1598V76.1436C21.3736 73.3322 19.8298 71.6178 17.3353 71.6178C14.8409 71.6178 13.2971 73.3322 13.2971 76.1436V76.1598C13.2971 78.9631 14.8409 80.6856 17.3353 80.6856ZM17.3353 79.4343C15.6778 79.4343 14.7434 78.2237 14.7434 76.1598V76.1436C14.7434 74.0716 15.6778 72.8691 17.3353 72.8691C18.9929 72.8691 19.9273 74.0716 19.9273 76.1436V76.1598C19.9273 78.2237 18.9929 79.4343 17.3353 79.4343ZM23.5674 83.4564H24.9813V79.1499H25.1113C25.5906 80.0844 26.6388 80.6856 27.8414 80.6856C30.0677 80.6856 31.514 78.9062 31.514 76.1598V76.1436C31.514 73.4135 30.0596 71.6178 27.8414 71.6178C26.6226 71.6178 25.6475 72.1947 25.1113 73.1697H24.9813V71.7722H23.5674V83.4564ZM27.5163 79.4343C25.9238 79.4343 24.9487 78.183 24.9487 76.1598V76.1436C24.9487 74.1204 25.9238 72.8691 27.5163 72.8691C29.117 72.8691 30.0677 74.1041 30.0677 76.1436V76.1598C30.0677 78.1993 29.117 79.4343 27.5163 79.4343ZM34.1466 83.6026C35.6985 83.6026 36.4217 83.0338 37.1448 81.0675L40.5656 71.7722H39.0786L36.6817 78.9793H36.5517L34.1466 71.7722H32.6353L35.8773 80.5394L35.7148 81.0594C35.3979 82.0669 34.9104 82.4326 34.106 82.4326C33.9109 82.4326 33.6916 82.4244 33.5209 82.3919V83.5539C33.7159 83.5864 33.9597 83.6026 34.1466 83.6026ZM42.4344 80.5312H43.8482V75.1035C43.8482 73.8197 44.807 72.9666 46.1558 72.9666C46.4646 72.9666 46.7327 72.9991 47.0252 73.0478V71.6747C46.8871 71.6503 46.5864 71.6178 46.3183 71.6178C45.132 71.6178 44.3114 72.1541 43.9782 73.0722H43.8482V71.7722H42.4344V80.5312ZM49.5197 70.0821C50.056 70.0821 50.4947 69.6433 50.4947 69.1071C50.4947 68.5708 50.056 68.132 49.5197 68.132C48.9834 68.132 48.5447 68.5708 48.5447 69.1071C48.5447 69.6433 48.9834 70.0821 49.5197 70.0821ZM48.8047 80.5312H50.2185V71.7722H48.8047V80.5312ZM56.4912 83.6189C58.88 83.6189 60.3913 82.3676 60.3913 80.4094V71.7722H58.9775V73.2185H58.88C58.3438 72.2272 57.385 71.6178 56.1499 71.6178C53.8586 71.6178 52.4448 73.3972 52.4448 75.8511V75.8673C52.4448 78.3212 53.8505 80.0762 56.1174 80.0762C57.32 80.0762 58.3113 79.5318 58.8638 78.5649H58.9938V80.3362C58.9938 81.6282 58.0594 82.3676 56.4912 82.3676C55.2318 82.3676 54.4517 81.8963 54.2974 81.23L54.2892 81.2219H52.8267L52.8104 81.23C53.0298 82.6682 54.3786 83.6189 56.4912 83.6189ZM56.4262 78.8249C54.8011 78.8249 53.8911 77.6061 53.8911 75.8673V75.8511C53.8911 74.1123 54.8011 72.8691 56.4262 72.8691C58.0431 72.8691 59.0263 74.1123 59.0263 75.8511V75.8673C59.0263 77.6061 58.0512 78.8249 56.4262 78.8249ZM63.1052 80.5312H64.519V75.3473C64.519 73.8116 65.4047 72.8691 66.8022 72.8691C68.1998 72.8691 68.8498 73.6247 68.8498 75.2011V80.5312H70.2636V74.8598C70.2636 72.7797 69.1667 71.6178 67.2003 71.6178C65.9084 71.6178 65.0878 72.1622 64.649 73.0885H64.519V68.2945H63.1052V80.5312ZM75.935 80.5963C76.2113 80.5963 76.4794 80.5638 76.7557 80.515V79.3125C76.4957 79.3368 76.3575 79.345 76.1056 79.345C75.1956 79.345 74.8381 78.9306 74.8381 77.8987V72.9422H76.7557V71.7722H74.8381V69.5052H73.3755V71.7722H71.9942V72.9422H73.3755V78.2562C73.3755 79.93 74.1312 80.5963 75.935 80.5963ZM96.0696 74.6404C96.0696 71.0734 93.2663 68.2702 89.6993 68.2702H89.6425C86.0755 68.2702 83.2722 71.0734 83.2722 74.6404V74.6973C83.2722 78.2643 86.0755 81.0675 89.6425 81.0675H89.6993C93.2663 81.0675 96.0696 78.2643 96.0696 74.6973V74.6404ZM94.997 74.6404V74.6973C94.997 77.663 92.6651 79.995 89.6993 79.995H89.6425C86.6767 79.995 84.3448 77.663 84.3448 74.6973V74.6404C84.3448 71.6747 86.6767 69.3427 89.6425 69.3427H89.6993C92.6651 69.3427 94.997 71.6747 94.997 74.6404ZM89.7806 77.6711C91.1781 77.6711 92.1776 76.8505 92.3319 75.6479V75.5992H91.235L91.2269 75.6317C91.0806 76.2411 90.5281 76.6392 89.7806 76.6392C88.7731 76.6392 88.1555 75.8836 88.1555 74.6729V74.6648C88.1555 73.446 88.7731 72.6985 89.7725 72.6985C90.52 72.6985 91.0888 73.1372 91.235 73.771V73.7954H92.3319V73.7466C92.1938 72.536 91.1538 71.6665 89.7725 71.6665C88.0662 71.6665 87.0099 72.8122 87.0099 74.6648V74.6729C87.0099 76.5255 88.0662 77.6711 89.7806 77.6711ZM103.106 80.5312H110.695V79.215H105.137V79.0849L107.803 76.3305C109.923 74.1448 110.5 73.1697 110.5 71.8291V71.8128C110.5 69.9196 108.932 68.5302 106.884 68.5302C104.642 68.5302 103.033 70.0252 103.025 72.1053L103.041 72.1134L104.439 72.1216L104.447 72.1053C104.447 70.724 105.381 69.8058 106.787 69.8058C108.168 69.8058 109.005 70.7321 109.005 71.9672V71.9834C109.005 73.0072 108.566 73.6166 107.071 75.2336L103.106 79.5237V80.5312ZM117.073 80.8075C119.665 80.8075 121.225 78.443 121.225 74.6729V74.6567C121.225 70.8865 119.665 68.5302 117.073 68.5302C114.481 68.5302 112.938 70.8865 112.938 74.6567V74.6729C112.938 78.443 114.481 80.8075 117.073 80.8075ZM117.073 79.5318C115.392 79.5318 114.408 77.663 114.408 74.6729V74.6567C114.408 71.6665 115.392 69.814 117.073 69.814C118.755 69.814 119.755 71.6665 119.755 74.6567V74.6729C119.755 77.663 118.755 79.5318 117.073 79.5318ZM123.631 80.5312H131.22V79.215H125.662V79.0849L128.327 76.3305C130.448 74.1448 131.025 73.1697 131.025 71.8291V71.8128C131.025 69.9196 129.456 68.5302 127.409 68.5302C125.166 68.5302 123.557 70.0252 123.549 72.1053L123.566 72.1134L124.963 72.1216L124.971 72.1053C124.971 70.724 125.906 69.8058 127.311 69.8058C128.693 69.8058 129.53 70.7321 129.53 71.9672V71.9834C129.53 73.0072 129.091 73.6166 127.596 75.2336L123.631 79.5237V80.5312ZM133.673 80.5312H141.262V79.215H135.705V79.0849L138.37 76.3305C140.491 74.1448 141.067 73.1697 141.067 71.8291V71.8128C141.067 69.9196 139.499 68.5302 137.452 68.5302C135.209 68.5302 133.6 70.0252 133.592 72.1053L133.608 72.1134L135.006 72.1216L135.014 72.1053C135.014 70.724 135.949 69.8058 137.354 69.8058C138.735 69.8058 139.572 70.7321 139.572 71.9672V71.9834C139.572 73.0072 139.134 73.6166 137.639 75.2336L133.673 79.5237V80.5312ZM147.649 80.5312H149.185L150.363 77.1755H155.027L156.205 80.5312H157.741L153.418 68.8064H151.972L147.649 80.5312ZM152.63 70.6996H152.76L154.596 75.9323H150.793L152.63 70.6996ZM159.618 83.4564H161.031V79.1499H161.161C161.641 80.0844 162.689 80.6856 163.891 80.6856C166.118 80.6856 167.564 78.9062 167.564 76.1598V76.1436C167.564 73.4135 166.11 71.6178 163.891 71.6178C162.673 71.6178 161.698 72.1947 161.161 73.1697H161.031V71.7722H159.618V83.4564ZM163.566 79.4343C161.974 79.4343 160.999 78.183 160.999 76.1598V76.1436C160.999 74.1204 161.974 72.8691 163.566 72.8691C165.167 72.8691 166.118 74.1041 166.118 76.1436V76.1598C166.118 78.1993 165.167 79.4343 163.566 79.4343ZM169.774 83.4564H171.188V79.1499H171.318C171.797 80.0844 172.846 80.6856 174.048 80.6856C176.274 80.6856 177.721 78.9062 177.721 76.1598V76.1436C177.721 73.4135 176.266 71.6178 174.048 71.6178C172.829 71.6178 171.854 72.1947 171.318 73.1697H171.188V71.7722H169.774V83.4564ZM173.723 79.4343C172.131 79.4343 171.155 78.183 171.155 76.1598V76.1436C171.155 74.1204 172.131 72.8691 173.723 72.8691C175.324 72.8691 176.274 74.1041 176.274 76.1436V76.1598C176.274 78.1993 175.324 79.4343 173.723 79.4343ZM180.012 80.5312H181.426V68.2945H180.012V80.5312ZM187.715 80.6856C189.779 80.6856 191.03 79.5156 191.331 78.3293L191.347 78.2643H189.933L189.901 78.3374C189.665 78.8656 188.934 79.4262 187.747 79.4262C186.187 79.4262 185.188 78.3699 185.147 76.558H191.453V76.0055C191.453 73.3891 190.006 71.6178 187.626 71.6178C185.245 71.6178 183.701 73.4704 183.701 76.1761V76.1842C183.701 78.9306 185.212 80.6856 187.715 80.6856ZM187.617 72.8772C188.909 72.8772 189.868 73.6979 190.014 75.4286H185.172C185.326 73.7629 186.317 72.8772 187.617 72.8772ZM198.505 80.5312H199.968V68.8064H198.505V80.5312ZM202.779 80.5312H204.193V75.3473C204.193 73.8116 205.079 72.8691 206.476 72.8691C207.874 72.8691 208.524 73.6247 208.524 75.2011V80.5312H209.938V74.8598C209.938 72.7797 208.841 71.6178 206.874 71.6178C205.583 71.6178 204.762 72.1622 204.323 73.0885H204.193V71.7722H202.779V80.5312ZM216.08 80.6856C218.185 80.6856 219.363 79.5562 219.72 77.9718L219.737 77.8824L218.339 77.8905L218.323 77.9393C217.998 78.9143 217.25 79.4343 216.072 79.4343C214.512 79.4343 213.505 78.1424 213.505 76.1273V76.1111C213.505 74.1366 214.496 72.8691 216.072 72.8691C217.332 72.8691 218.112 73.5679 218.331 74.4291L218.339 74.4535H219.745L219.737 74.4048C219.477 72.8447 218.201 71.6178 216.072 71.6178C213.618 71.6178 212.058 73.3891 212.058 76.1111V76.1273C212.058 78.9062 213.627 80.6856 216.08 80.6856ZM222.962 80.6125C223.547 80.6125 224.019 80.1331 224.019 79.5562C224.019 78.9712 223.547 78.4999 222.962 78.4999C222.386 78.4999 221.906 78.9712 221.906 79.5562C221.906 80.1331 222.386 80.6125 222.962 80.6125ZM230.673 80.5312H232.209L233.387 77.1755H238.051L239.229 80.5312H240.765L236.442 68.8064H234.996L230.673 80.5312ZM235.654 70.6996H235.784L237.62 75.9323H233.818L235.654 70.6996ZM242.723 80.5312H244.137V68.2945H242.723V80.5312ZM246.932 80.5312H248.346V68.2945H246.932V80.5312ZM255.74 80.5312H257.154V75.1035C257.154 73.8197 258.113 72.9666 259.461 72.9666C259.77 72.9666 260.038 72.9991 260.331 73.0478V71.6747C260.193 71.6503 259.892 71.6178 259.624 71.6178C258.438 71.6178 257.617 72.1541 257.284 73.0722H257.154V71.7722H255.74V80.5312ZM262.825 70.0821C263.362 70.0821 263.8 69.6433 263.8 69.1071C263.8 68.5708 263.362 68.132 262.825 68.132C262.289 68.132 261.85 68.5708 261.85 69.1071C261.85 69.6433 262.289 70.0821 262.825 70.0821ZM262.11 80.5312H263.524V71.7722H262.11V80.5312ZM269.797 83.6189C272.185 83.6189 273.697 82.3676 273.697 80.4094V71.7722H272.283V73.2185H272.185C271.649 72.2272 270.69 71.6178 269.455 71.6178C267.164 71.6178 265.75 73.3972 265.75 75.8511V75.8673C265.75 78.3212 267.156 80.0762 269.423 80.0762C270.625 80.0762 271.617 79.5318 272.169 78.5649H272.299V80.3362C272.299 81.6282 271.365 82.3676 269.797 82.3676C268.537 82.3676 267.757 81.8963 267.603 81.23L267.595 81.2219H266.132L266.116 81.23C266.335 82.6682 267.684 83.6189 269.797 83.6189ZM269.732 78.8249C268.107 78.8249 267.197 77.6061 267.197 75.8673V75.8511C267.197 74.1123 268.107 72.8691 269.732 72.8691C271.349 72.8691 272.332 74.1123 272.332 75.8511V75.8673C272.332 77.6061 271.357 78.8249 269.732 78.8249ZM276.411 80.5312H277.824V75.3473C277.824 73.8116 278.71 72.8691 280.108 72.8691C281.505 72.8691 282.155 73.6247 282.155 75.2011V80.5312H283.569V74.8598C283.569 72.7797 282.472 71.6178 280.506 71.6178C279.214 71.6178 278.393 72.1622 277.954 73.0885H277.824V68.2945H276.411V80.5312ZM289.241 80.5963C289.517 80.5963 289.785 80.5638 290.061 80.515V79.3125C289.801 79.3368 289.663 79.345 289.411 79.345C288.501 79.345 288.144 78.9306 288.144 77.8987V72.9422H290.061V71.7722H288.144V69.5052H286.681V71.7722H285.3V72.9422H286.681V78.2562C286.681 79.93 287.437 80.5963 289.241 80.5963ZM295.018 80.6856C297.008 80.6856 298.528 79.605 298.528 78.0449V78.0287C298.528 76.7774 297.731 76.0623 296.082 75.6642L294.733 75.3392C293.701 75.0873 293.262 74.7135 293.262 74.1204V74.1041C293.262 73.3322 294.026 72.796 295.066 72.796C296.123 72.796 296.805 73.2754 296.992 73.966H298.381C298.186 72.536 296.911 71.6178 295.074 71.6178C293.214 71.6178 291.816 72.7147 291.816 74.1691V74.1773C291.816 75.4367 292.556 76.1517 294.197 76.5417L295.554 76.8667C296.634 77.1267 297.081 77.5411 297.081 78.1343V78.1505C297.081 78.9468 296.244 79.5075 295.066 79.5075C293.945 79.5075 293.246 79.0281 293.011 78.2968H291.564C291.727 79.7431 293.067 80.6856 295.018 80.6856ZM305.402 80.5312H306.815V75.1035C306.815 73.8197 307.774 72.9666 309.123 72.9666C309.432 72.9666 309.7 72.9991 309.992 73.0478V71.6747C309.854 71.6503 309.554 71.6178 309.286 71.6178C308.099 71.6178 307.279 72.1541 306.945 73.0722H306.815V71.7722H305.402V80.5312ZM315.071 80.6856C317.135 80.6856 318.386 79.5156 318.687 78.3293L318.703 78.2643H317.289L317.257 78.3374C317.021 78.8656 316.29 79.4262 315.103 79.4262C313.543 79.4262 312.544 78.3699 312.503 76.558H318.809V76.0055C318.809 73.3891 317.362 71.6178 314.982 71.6178C312.601 71.6178 311.057 73.4704 311.057 76.1761V76.1842C311.057 78.9306 312.568 80.6856 315.071 80.6856ZM314.973 72.8772C316.265 72.8772 317.224 73.6979 317.37 75.4286H312.528C312.682 73.7629 313.673 72.8772 314.973 72.8772ZM324.009 80.6856C325.999 80.6856 327.519 79.605 327.519 78.0449V78.0287C327.519 76.7774 326.722 76.0623 325.073 75.6642L323.724 75.3392C322.692 75.0873 322.253 74.7135 322.253 74.1204V74.1041C322.253 73.3322 323.017 72.796 324.057 72.796C325.114 72.796 325.796 73.2754 325.983 73.966H327.372C327.177 72.536 325.902 71.6178 324.065 71.6178C322.205 71.6178 320.807 72.7147 320.807 74.1691V74.1773C320.807 75.4367 321.547 76.1517 323.188 76.5417L324.545 76.8667C325.625 77.1267 326.072 77.5411 326.072 78.1343V78.1505C326.072 78.9468 325.235 79.5075 324.057 79.5075C322.936 79.5075 322.237 79.0281 322.002 78.2968H320.555C320.718 79.7431 322.058 80.6856 324.009 80.6856ZM333.288 80.6856C335.351 80.6856 336.603 79.5156 336.903 78.3293L336.92 78.2643H335.506L335.473 78.3374C335.238 78.8656 334.506 79.4262 333.32 79.4262C331.76 79.4262 330.761 78.3699 330.72 76.558H337.025V76.0055C337.025 73.3891 335.579 71.6178 333.198 71.6178C330.818 71.6178 329.274 73.4704 329.274 76.1761V76.1842C329.274 78.9306 330.785 80.6856 333.288 80.6856ZM333.19 72.8772C334.482 72.8772 335.441 73.6979 335.587 75.4286H330.744C330.899 73.7629 331.89 72.8772 333.19 72.8772ZM339.219 80.5312H340.633V75.1035C340.633 73.8197 341.592 72.9666 342.941 72.9666C343.249 72.9666 343.518 72.9991 343.81 73.0478V71.6747C343.672 71.6503 343.371 71.6178 343.103 71.6178C341.917 71.6178 341.096 72.1541 340.763 73.0722H340.633V71.7722H339.219V80.5312ZM348.116 80.5312H349.546L352.788 71.7722H351.293L348.896 78.9874H348.766L346.369 71.7722H344.874L348.116 80.5312ZM357.908 80.6856C359.972 80.6856 361.223 79.5156 361.524 78.3293L361.54 78.2643H360.126L360.093 78.3374C359.858 78.8656 359.127 79.4262 357.94 79.4262C356.38 79.4262 355.381 78.3699 355.34 76.558H361.645V76.0055C361.645 73.3891 360.199 71.6178 357.818 71.6178C355.438 71.6178 353.894 73.4704 353.894 76.1761V76.1842C353.894 78.9306 355.405 80.6856 357.908 80.6856ZM357.81 72.8772C359.102 72.8772 360.061 73.6979 360.207 75.4286H355.365C355.519 73.7629 356.51 72.8772 357.81 72.8772ZM367.073 80.6856C368.291 80.6856 369.266 80.1087 369.803 79.1337H369.933V80.5312H371.347V68.2945H369.933V73.1535H369.803C369.323 72.2191 368.275 71.6178 367.073 71.6178C364.846 71.6178 363.4 73.3972 363.4 76.1436V76.1598C363.4 78.8899 364.854 80.6856 367.073 80.6856ZM367.398 79.4343C365.797 79.4343 364.846 78.1993 364.846 76.1598V76.1436C364.846 74.1041 365.797 72.8691 367.398 72.8691C368.99 72.8691 369.965 74.1204 369.965 76.1436V76.1598C369.965 78.183 368.99 79.4343 367.398 79.4343ZM375.215 80.6125C375.8 80.6125 376.271 80.1331 376.271 79.5562C376.271 78.9712 375.8 78.4999 375.215 78.4999C374.638 78.4999 374.158 78.9712 374.158 79.5562C374.158 80.1331 374.638 80.6125 375.215 80.6125Z" fill="#6E6E73"/>
<path d="M420.748 80.5312H422.211V76.3467H425.169C427.371 76.3467 428.931 74.7948 428.931 72.5685V72.5522C428.931 70.3259 427.371 68.8064 425.169 68.8064H420.748V80.5312ZM424.795 70.1065C426.469 70.1065 427.436 71.0246 427.436 72.5685V72.5847C427.436 74.1285 426.469 75.0467 424.795 75.0467H422.211V70.1065H424.795ZM431.149 80.5312H432.563V75.1035C432.563 73.8197 433.521 72.9666 434.87 72.9666C435.179 72.9666 435.447 72.9991 435.74 73.0478V71.6747C435.602 71.6503 435.301 71.6178 435.033 71.6178C433.846 71.6178 433.026 72.1541 432.693 73.0722H432.563V71.7722H431.149V80.5312ZM438.234 70.0821C438.77 70.0821 439.209 69.6433 439.209 69.1071C439.209 68.5708 438.77 68.132 438.234 68.132C437.698 68.132 437.259 68.5708 437.259 69.1071C437.259 69.6433 437.698 70.0821 438.234 70.0821ZM437.519 80.5312H438.933V71.7722H437.519V80.5312ZM444.076 80.5312H445.506L448.748 71.7722H447.253L444.856 78.9874H444.726L442.329 71.7722H440.834L444.076 80.5312ZM452.697 80.6856C453.875 80.6856 454.793 80.1737 455.346 79.2393H455.476V80.5312H456.89V74.5348C456.89 72.7147 455.695 71.6178 453.558 71.6178C451.69 71.6178 450.357 72.5441 450.13 73.9173L450.121 73.966H451.535L451.543 73.9416C451.771 73.2591 452.462 72.8691 453.51 72.8691C454.818 72.8691 455.476 73.4541 455.476 74.5348V75.3311L452.965 75.4854C450.926 75.6073 449.772 76.5092 449.772 78.0693V78.0855C449.772 79.6781 451.031 80.6856 452.697 80.6856ZM451.218 78.053V78.0368C451.218 77.1674 451.803 76.6961 453.136 76.6149L455.476 76.4686V77.2649C455.476 78.5162 454.428 79.4587 452.99 79.4587C451.974 79.4587 451.218 78.9387 451.218 78.053ZM463.057 80.6856C465.161 80.6856 466.34 79.5562 466.697 77.9718L466.713 77.8824L465.316 77.8905L465.299 77.9393C464.974 78.9143 464.227 79.4343 463.049 79.4343C461.489 79.4343 460.481 78.1424 460.481 76.1273V76.1111C460.481 74.1366 461.472 72.8691 463.049 72.8691C464.308 72.8691 465.088 73.5679 465.308 74.4291L465.316 74.4535H466.721L466.713 74.4048C466.453 72.8447 465.178 71.6178 463.049 71.6178C460.595 71.6178 459.035 73.3891 459.035 76.1111V76.1273C459.035 78.9062 460.603 80.6856 463.057 80.6856ZM469.533 83.6026C471.085 83.6026 471.808 83.0338 472.531 81.0675L475.952 71.7722H474.465L472.068 78.9793H471.938L469.533 71.7722H468.021L471.263 80.5394L471.101 81.0594C470.784 82.0669 470.297 82.4326 469.492 82.4326C469.297 82.4326 469.078 82.4244 468.907 82.3919V83.5539C469.102 83.5864 469.346 83.6026 469.533 83.6026ZM482.68 80.5312H484.142V76.3467H487.1C489.302 76.3467 490.862 74.7948 490.862 72.5685V72.5522C490.862 70.3259 489.302 68.8064 487.1 68.8064H482.68V80.5312ZM486.726 70.1065C488.4 70.1065 489.367 71.0246 489.367 72.5685V72.5847C489.367 74.1285 488.4 75.0467 486.726 75.0467H484.142V70.1065H486.726ZM496.436 80.6856C498.93 80.6856 500.474 78.9631 500.474 76.1598V76.1436C500.474 73.3322 498.93 71.6178 496.436 71.6178C493.941 71.6178 492.397 73.3322 492.397 76.1436V76.1598C492.397 78.9631 493.941 80.6856 496.436 80.6856ZM496.436 79.4343C494.778 79.4343 493.844 78.2237 493.844 76.1598V76.1436C493.844 74.0716 494.778 72.8691 496.436 72.8691C498.093 72.8691 499.028 74.0716 499.028 76.1436V76.1598C499.028 78.2237 498.093 79.4343 496.436 79.4343ZM502.749 80.5312H504.163V68.2945H502.749V80.5312ZM507.624 70.0821C508.16 70.0821 508.599 69.6433 508.599 69.1071C508.599 68.5708 508.16 68.132 507.624 68.132C507.088 68.132 506.649 68.5708 506.649 69.1071C506.649 69.6433 507.088 70.0821 507.624 70.0821ZM506.909 80.5312H508.323V71.7722H506.909V80.5312ZM514.571 80.6856C516.676 80.6856 517.854 79.5562 518.211 77.9718L518.228 77.8824L516.83 77.8905L516.814 77.9393C516.489 78.9143 515.741 79.4343 514.563 79.4343C513.003 79.4343 511.996 78.1424 511.996 76.1273V76.1111C511.996 74.1366 512.987 72.8691 514.563 72.8691C515.823 72.8691 516.603 73.5679 516.822 74.4291L516.83 74.4535H518.236L518.228 74.4048C517.968 72.8447 516.692 71.6178 514.563 71.6178C512.109 71.6178 510.549 73.3891 510.549 76.1111V76.1273C510.549 78.9062 512.117 80.6856 514.571 80.6856ZM521.047 83.6026C522.599 83.6026 523.322 83.0338 524.045 81.0675L527.466 71.7722H525.979L523.582 78.9793H523.452L521.047 71.7722H519.536L522.778 80.5394L522.615 81.0594C522.298 82.0669 521.811 82.4326 521.007 82.4326C520.812 82.4326 520.592 82.4244 520.422 82.3919V83.5539C520.617 83.5864 520.86 83.6026 521.047 83.6026Z" fill="#424245"/>
<path d="M543.256 68.5312V84.5312" stroke="#D2D2D7"/>
<path d="M562.186 80.5312H563.648V70.1227H567.426V68.8064H558.407V70.1227H562.186V80.5312ZM571.457 80.6856C573.52 80.6856 574.772 79.5156 575.072 78.3293L575.089 78.2643H573.675L573.642 78.3374C573.407 78.8656 572.675 79.4262 571.489 79.4262C569.929 79.4262 568.93 78.3699 568.889 76.558H575.194V76.0055C575.194 73.3891 573.748 71.6178 571.367 71.6178C568.986 71.6178 567.443 73.4704 567.443 76.1761V76.1842C567.443 78.9306 568.954 80.6856 571.457 80.6856ZM571.359 72.8772C572.651 72.8772 573.61 73.6979 573.756 75.4286H568.913C569.068 73.7629 570.059 72.8772 571.359 72.8772ZM577.388 80.5312H578.802V75.1035C578.802 73.8197 579.761 72.9666 581.109 72.9666C581.418 72.9666 581.686 72.9991 581.979 73.0478V71.6747C581.841 71.6503 581.54 71.6178 581.272 71.6178C580.086 71.6178 579.265 72.1541 578.932 73.0722H578.802V71.7722H577.388V80.5312ZM583.888 80.5312H585.302V75.1035C585.302 73.8685 586.171 72.8691 587.317 72.8691C588.422 72.8691 589.137 73.5435 589.137 74.5835V80.5312H590.551V74.9004C590.551 73.7872 591.355 72.8691 592.574 72.8691C593.809 72.8691 594.402 73.511 594.402 74.8029V80.5312H595.816V74.4779C595.816 72.6416 594.817 71.6178 593.029 71.6178C591.819 71.6178 590.819 72.2272 590.348 73.1535H590.218C589.812 72.2434 588.983 71.6178 587.797 71.6178C586.651 71.6178 585.822 72.1622 585.432 73.1047H585.302V71.7722H583.888V80.5312ZM601.374 80.6856C603.365 80.6856 604.884 79.605 604.884 78.0449V78.0287C604.884 76.7774 604.088 76.0623 602.438 75.6642L601.09 75.3392C600.058 75.0873 599.619 74.7135 599.619 74.1204V74.1041C599.619 73.3322 600.383 72.796 601.423 72.796C602.479 72.796 603.161 73.2754 603.348 73.966H604.738C604.543 72.5359 603.267 71.6178 601.431 71.6178C599.57 71.6178 598.173 72.7147 598.173 74.1691V74.1773C598.173 75.4367 598.912 76.1517 600.553 76.5417L601.91 76.8667C602.991 77.1267 603.438 77.5411 603.438 78.1343V78.1505C603.438 78.9468 602.601 79.5075 601.423 79.5075C600.301 79.5075 599.603 79.0281 599.367 78.2968H597.921C598.083 79.7431 599.424 80.6856 601.374 80.6856ZM615.358 80.6856C617.852 80.6856 619.396 78.9631 619.396 76.1598V76.1436C619.396 73.3322 617.852 71.6178 615.358 71.6178C612.863 71.6178 611.319 73.3322 611.319 76.1436V76.1598C611.319 78.9631 612.863 80.6856 615.358 80.6856ZM615.358 79.4343C613.7 79.4343 612.766 78.2237 612.766 76.1598V76.1436C612.766 74.0716 613.7 72.8691 615.358 72.8691C617.015 72.8691 617.95 74.0716 617.95 76.1436V76.1598C617.95 78.2237 617.015 79.4343 615.358 79.4343ZM622.175 80.5312H623.589V72.9422H625.579V71.7722H623.589V70.8378C623.589 69.879 623.995 69.3833 625.002 69.3833C625.254 69.3833 625.49 69.3915 625.66 69.424V68.2945C625.368 68.2377 625.059 68.2133 624.718 68.2133C623.052 68.2133 622.175 69.0502 622.175 70.7971V71.7722H620.72V72.9422H622.175V80.5312ZM637.125 80.8075C640.034 80.8075 641.773 79.0524 641.773 76.5011V68.8064H640.31V76.4036C640.31 78.2074 639.157 79.4587 637.125 79.4587C635.094 79.4587 633.924 78.2074 633.924 76.4036V68.8064H632.461V76.5011C632.461 79.0524 634.216 80.8075 637.125 80.8075ZM647.574 80.6856C649.565 80.6856 651.085 79.605 651.085 78.0449V78.0287C651.085 76.7774 650.288 76.0623 648.639 75.6642L647.29 75.3392C646.258 75.0873 645.819 74.7135 645.819 74.1204V74.1041C645.819 73.3322 646.583 72.796 647.623 72.796C648.679 72.796 649.362 73.2754 649.549 73.966H650.938C650.743 72.5359 649.468 71.6178 647.631 71.6178C645.771 71.6178 644.373 72.7147 644.373 74.1691V74.1773C644.373 75.4367 645.112 76.1517 646.754 76.5417L648.111 76.8667C649.191 77.1267 649.638 77.5411 649.638 78.1343V78.1505C649.638 78.9468 648.801 79.5075 647.623 79.5075C646.502 79.5075 645.803 79.0281 645.567 78.2968H644.121C644.284 79.7431 645.624 80.6856 647.574 80.6856ZM656.854 80.6856C658.917 80.6856 660.169 79.5156 660.469 78.3293L660.486 78.2643H659.072L659.039 78.3374C658.804 78.8656 658.072 79.4262 656.886 79.4262C655.326 79.4262 654.327 78.3699 654.286 76.558H660.591V76.0055C660.591 73.3891 659.145 71.6178 656.764 71.6178C654.383 71.6178 652.84 73.4704 652.84 76.1761V76.1842C652.84 78.9306 654.351 80.6856 656.854 80.6856ZM656.756 72.8772C658.048 72.8772 659.007 73.6979 659.153 75.4286H654.31C654.465 73.7629 655.456 72.8772 656.756 72.8772Z" fill="#424245"/>
<path d="M676.728 68.5312V84.5312" stroke="#D2D2D7"/>
<path d="M696.454 80.8075C699.07 80.8075 700.784 79.4425 700.784 77.2486V77.2405C700.784 75.5504 699.817 74.5673 697.372 74.0229L696.072 73.7304C694.479 73.381 693.837 72.7472 693.837 71.8128V71.8047C693.837 70.5778 694.967 69.8871 696.429 69.879C697.957 69.8709 698.932 70.6346 699.094 71.6666L699.111 71.7722H700.573L700.565 71.6584C700.443 69.9115 698.81 68.5302 696.47 68.5302C694.048 68.5302 692.35 69.9034 692.342 71.8453V71.8534C692.342 73.5516 693.358 74.6323 695.706 75.1523L697.006 75.4367C698.615 75.7942 699.289 76.4605 699.289 77.4355V77.4436C699.289 78.6381 698.127 79.4587 696.535 79.4587C694.845 79.4587 693.626 78.7193 693.52 77.5493L693.512 77.4599H692.05L692.058 77.5493C692.228 79.4587 693.886 80.8075 696.454 80.8075ZM705.448 80.6856C706.626 80.6856 707.545 80.1737 708.097 79.2393H708.227V80.5312H709.641V74.5348C709.641 72.7147 708.446 71.6178 706.31 71.6178C704.441 71.6178 703.108 72.5441 702.881 73.9173L702.873 73.966H704.286L704.294 73.9416C704.522 73.2591 705.213 72.8691 706.261 72.8691C707.569 72.8691 708.227 73.4541 708.227 74.5348V75.3311L705.716 75.4854C703.677 75.6073 702.523 76.5092 702.523 78.0693V78.0855C702.523 79.6781 703.783 80.6856 705.448 80.6856ZM703.969 78.053V78.0368C703.969 77.1674 704.554 76.6961 705.887 76.6149L708.227 76.4686V77.2649C708.227 78.5162 707.179 79.4587 705.741 79.4587C704.725 79.4587 703.969 78.9387 703.969 78.053ZM712.306 80.5312H713.72V68.2946H712.306V80.5312ZM720.009 80.6856C722.073 80.6856 723.324 79.5156 723.625 78.3293L723.641 78.2643H722.227L722.195 78.3374C721.959 78.8656 721.228 79.4262 720.041 79.4262C718.481 79.4262 717.482 78.3699 717.441 76.558H723.746V76.0055C723.746 73.3891 722.3 71.6178 719.919 71.6178C717.539 71.6178 715.995 73.4704 715.995 76.1761V76.1842C715.995 78.9306 717.506 80.6856 720.009 80.6856ZM719.911 72.8772C721.203 72.8772 722.162 73.6979 722.308 75.4286H717.466C717.62 73.7629 718.611 72.8772 719.911 72.8772ZM728.947 80.6856C730.937 80.6856 732.457 79.605 732.457 78.0449V78.0287C732.457 76.7774 731.66 76.0623 730.011 75.6642L728.662 75.3392C727.63 75.0873 727.192 74.7135 727.192 74.1204V74.1041C727.192 73.3322 727.955 72.796 728.995 72.796C730.052 72.796 730.734 73.2754 730.921 73.966H732.31C732.115 72.536 730.84 71.6178 729.004 71.6178C727.143 71.6178 725.745 72.7147 725.745 74.1691V74.1773C725.745 75.4367 726.485 76.1517 728.126 76.5417L729.483 76.8667C730.564 77.1268 731.01 77.5411 731.01 78.1343V78.1505C731.01 78.9468 730.174 79.5075 728.995 79.5075C727.874 79.5075 727.175 79.0281 726.94 78.2968H725.493C725.656 79.7431 726.997 80.6856 728.947 80.6856ZM741.736 80.6856C742.914 80.6856 743.832 80.1737 744.385 79.2393H744.515V80.5312H745.929V74.5348C745.929 72.7147 744.734 71.6178 742.597 71.6178C740.728 71.6178 739.396 72.5441 739.168 73.9173L739.16 73.966H740.574L740.582 73.9416C740.81 73.2591 741.5 72.8691 742.548 72.8691C743.857 72.8691 744.515 73.4541 744.515 74.5348V75.3311L742.004 75.4854C739.965 75.6073 738.811 76.5092 738.811 78.0693V78.0855C738.811 79.6781 740.07 80.6856 741.736 80.6856ZM740.257 78.053V78.0368C740.257 77.1674 740.842 76.6961 742.175 76.6149L744.515 76.4686V77.2649C744.515 78.5162 743.467 79.4587 742.028 79.4587C741.013 79.4587 740.257 78.9387 740.257 78.053ZM748.512 80.5312H749.926V75.3473C749.926 73.8116 750.812 72.8691 752.209 72.8691C753.607 72.8691 754.257 73.6247 754.257 75.2011V80.5312H755.671V74.8598C755.671 72.7797 754.574 71.6178 752.608 71.6178C751.316 71.6178 750.495 72.1622 750.056 73.0885H749.926V71.7722H748.512V80.5312ZM761.464 80.6856C762.683 80.6856 763.658 80.1087 764.194 79.1337H764.324V80.5312H765.738V68.2946H764.324V73.1535H764.194C763.715 72.2191 762.667 71.6178 761.464 71.6178C759.238 71.6178 757.791 73.3972 757.791 76.1436V76.1598C757.791 78.8899 759.246 80.6856 761.464 80.6856ZM761.789 79.4343C760.188 79.4343 759.238 78.1993 759.238 76.1598V76.1436C759.238 74.1041 760.188 72.8691 761.789 72.8691C763.382 72.8691 764.357 74.1204 764.357 76.1436V76.1598C764.357 78.183 763.382 79.4343 761.789 79.4343ZM773.311 80.5312H774.773V75.8917H777.658L780.169 80.5312H781.883L779.169 75.6642C780.64 75.2011 781.525 73.9335 781.525 72.3084V72.2922C781.525 70.1877 780.047 68.8064 777.788 68.8064H773.311V80.5312ZM774.773 74.5917V70.1065H777.593C779.104 70.1065 780.014 70.9434 780.014 72.341V72.3572C780.014 73.7873 779.161 74.5917 777.658 74.5917H774.773ZM787.335 80.6856C789.399 80.6856 790.65 79.5156 790.951 78.3293L790.967 78.2643H789.553L789.521 78.3374C789.285 78.8656 788.554 79.4262 787.368 79.4262C785.808 79.4262 784.808 78.3699 784.767 76.558H791.073V76.0055C791.073 73.3891 789.626 71.6178 787.246 71.6178C784.865 71.6178 783.321 73.4704 783.321 76.1761V76.1842C783.321 78.9306 784.832 80.6856 787.335 80.6856ZM787.238 72.8772C788.529 72.8772 789.488 73.6979 789.635 75.4286H784.792C784.946 73.7629 785.938 72.8772 787.238 72.8772ZM793.852 80.5312H795.265V72.9422H797.256V71.7722H795.265V70.8378C795.265 69.879 795.672 69.3833 796.679 69.3833C796.931 69.3833 797.167 69.3915 797.337 69.424V68.2946C797.045 68.2377 796.736 68.2133 796.395 68.2133C794.729 68.2133 793.852 69.0502 793.852 70.7971V71.7722H792.397V72.9422H793.852V80.5312ZM802.229 80.6856C803.513 80.6856 804.398 80.1575 804.829 79.2231H804.959V80.5312H806.373V71.7722H804.959V76.9561C804.959 78.4918 804.138 79.4343 802.594 79.4343C801.197 79.4343 800.628 78.6787 800.628 77.1024V71.7722H799.214V77.4436C799.214 79.5156 800.238 80.6856 802.229 80.6856ZM809.013 80.5312H810.427V75.3473C810.427 73.8116 811.313 72.8691 812.71 72.8691C814.108 72.8691 814.758 73.6247 814.758 75.2011V80.5312H816.172V74.8598C816.172 72.7797 815.075 71.6178 813.109 71.6178C811.817 71.6178 810.996 72.1622 810.557 73.0885H810.427V71.7722H809.013V80.5312ZM821.965 80.6856C823.184 80.6856 824.159 80.1087 824.695 79.1337H824.825V80.5312H826.239V68.2946H824.825V73.1535H824.695C824.216 72.2191 823.168 71.6178 821.965 71.6178C819.739 71.6178 818.292 73.3972 818.292 76.1436V76.1598C818.292 78.8899 819.747 80.6856 821.965 80.6856ZM822.29 79.4343C820.689 79.4343 819.739 78.1993 819.739 76.1598V76.1436C819.739 74.1041 820.689 72.8691 822.29 72.8691C823.883 72.8691 824.858 74.1204 824.858 76.1436V76.1598C824.858 78.183 823.883 79.4343 822.29 79.4343ZM831.959 80.6856C833.95 80.6856 835.469 79.605 835.469 78.0449V78.0287C835.469 76.7774 834.673 76.0623 833.024 75.6642L831.675 75.3392C830.643 75.0873 830.204 74.7135 830.204 74.1204V74.1041C830.204 73.3322 830.968 72.796 832.008 72.796C833.064 72.796 833.747 73.2754 833.934 73.966H835.323C835.128 72.536 833.852 71.6178 832.016 71.6178C830.155 71.6178 828.758 72.7147 828.758 74.1691V74.1773C828.758 75.4367 829.497 76.1517 831.139 76.5417L832.495 76.8667C833.576 77.1268 834.023 77.5411 834.023 78.1343V78.1505C834.023 78.9468 833.186 79.5075 832.008 79.5075C830.887 79.5075 830.188 79.0281 829.952 78.2968H828.506C828.668 79.7431 830.009 80.6856 831.959 80.6856Z" fill="#424245"/>
<path d="M851.563 68.5312V84.5312" stroke="#D2D2D7"/>
<path d="M867.445 80.5312H874.563V79.215H868.908V68.8064H867.445V80.5312ZM879.893 80.6856C881.957 80.6856 883.208 79.5156 883.509 78.3293L883.525 78.2643H882.111L882.079 78.3374C881.843 78.8656 881.112 79.4262 879.926 79.4262C878.366 79.4262 877.366 78.3699 877.326 76.558H883.631V76.0055C883.631 73.3891 882.185 71.6178 879.804 71.6178C877.423 71.6178 875.879 73.4704 875.879 76.1761V76.1842C875.879 78.9306 877.391 80.6856 879.893 80.6856ZM879.796 72.8772C881.088 72.8772 882.046 73.6979 882.193 75.4286H877.35C877.504 73.7629 878.496 72.8772 879.796 72.8772ZM889.432 83.6189C891.821 83.6189 893.332 82.3676 893.332 80.4094V71.7722H891.919V73.2185H891.821C891.285 72.2272 890.326 71.6178 889.091 71.6178C886.8 71.6178 885.386 73.3972 885.386 75.8511V75.8673C885.386 78.3212 886.792 80.0762 889.059 80.0762C890.261 80.0762 891.252 79.5318 891.805 78.5649H891.935V80.3362C891.935 81.6282 891.001 82.3676 889.432 82.3676C888.173 82.3676 887.393 81.8963 887.238 81.23L887.23 81.2219H885.768L885.752 81.23C885.971 82.6682 887.32 83.6189 889.432 83.6189ZM889.367 78.8249C887.742 78.8249 886.832 77.6061 886.832 75.8673V75.8511C886.832 74.1123 887.742 72.8691 889.367 72.8691C890.984 72.8691 891.967 74.1123 891.967 75.8511V75.8673C891.967 77.6061 890.992 78.8249 889.367 78.8249ZM898.37 80.6856C899.548 80.6856 900.466 80.1737 901.019 79.2393H901.149V80.5312H902.563V74.5348C902.563 72.7147 901.368 71.6178 899.231 71.6178C897.363 71.6178 896.03 72.5441 895.803 73.9173L895.794 73.966H897.208L897.216 73.9416C897.444 73.2591 898.135 72.8691 899.183 72.8691C900.491 72.8691 901.149 73.4541 901.149 74.5348V75.3311L898.638 75.4854C896.599 75.6073 895.445 76.5092 895.445 78.0693V78.0855C895.445 79.6781 896.704 80.6856 898.37 80.6856ZM896.891 78.053V78.0368C896.891 77.1674 897.476 76.6961 898.809 76.6149L901.149 76.4686V77.2649C901.149 78.5162 900.101 79.4587 898.663 79.4587C897.647 79.4587 896.891 78.9387 896.891 78.053ZM905.228 80.5312H906.642V68.2945H905.228V80.5312Z" fill="#424245"/>
<path d="M923.304 68.5312V84.5312" stroke="#D2D2D7"/>
<path d="M943.03 80.8075C945.646 80.8075 947.361 79.4425 947.361 77.2486V77.2405C947.361 75.5504 946.394 74.5673 943.948 74.0229L942.648 73.7304C941.055 73.381 940.413 72.7472 940.413 71.8128V71.8047C940.413 70.5778 941.543 69.8871 943.005 69.879C944.533 69.8709 945.508 70.6346 945.67 71.6665L945.687 71.7722H947.149L947.141 71.6584C947.019 69.9115 945.386 68.5302 943.046 68.5302C940.625 68.5302 938.926 69.9034 938.918 71.8453V71.8534C938.918 73.5516 939.934 74.6323 942.282 75.1523L943.582 75.4367C945.191 75.7942 945.865 76.4605 945.865 77.4355V77.4436C945.865 78.6381 944.704 79.4587 943.111 79.4587C941.421 79.4587 940.202 78.7193 940.096 77.5493L940.088 77.4599H938.626L938.634 77.5493C938.805 79.4587 940.462 80.8075 943.03 80.8075ZM950.367 70.0821C950.903 70.0821 951.342 69.6433 951.342 69.1071C951.342 68.5708 950.903 68.132 950.367 68.132C949.831 68.132 949.392 68.5708 949.392 69.1071C949.392 69.6433 949.831 70.0821 950.367 70.0821ZM949.652 80.5312H951.066V71.7722H949.652V80.5312ZM956.843 80.5963C957.119 80.5963 957.387 80.5638 957.663 80.515V79.3125C957.403 79.3368 957.265 79.345 957.013 79.345C956.103 79.345 955.746 78.9306 955.746 77.8987V72.9422H957.663V71.7722H955.746V69.5052H954.283V71.7722H952.902V72.9422H954.283V78.2562C954.283 79.93 955.039 80.5963 956.843 80.5963ZM963.221 80.6856C965.285 80.6856 966.536 79.5156 966.837 78.3293L966.853 78.2643H965.439L965.407 78.3374C965.171 78.8656 964.44 79.4262 963.254 79.4262C961.694 79.4262 960.694 78.3699 960.654 76.558H966.959V76.0055C966.959 73.3891 965.512 71.6178 963.132 71.6178C960.751 71.6178 959.207 73.4704 959.207 76.1761V76.1842C959.207 78.9306 960.719 80.6856 963.221 80.6856ZM963.124 72.8772C964.416 72.8772 965.374 73.6979 965.521 75.4286H960.678C960.832 73.7629 961.824 72.8772 963.124 72.8772ZM974.012 80.5312H975.377V71.5772H975.466L979.171 80.5312H980.406L984.111 71.5772H984.201V80.5312H985.566V68.8064H983.868L979.854 78.5893H979.724L975.71 68.8064H974.012V80.5312ZM990.782 80.6856C991.96 80.6856 992.878 80.1737 993.431 79.2393H993.561V80.5312H994.975V74.5348C994.975 72.7147 993.78 71.6178 991.643 71.6178C989.775 71.6178 988.442 72.5441 988.215 73.9173L988.206 73.966H989.62L989.628 73.9416C989.856 73.2591 990.547 72.8691 991.595 72.8691C992.903 72.8691 993.561 73.4541 993.561 74.5348V75.3311L991.05 75.4854C989.011 75.6073 987.857 76.5092 987.857 78.0693V78.0855C987.857 79.6781 989.116 80.6856 990.782 80.6856ZM989.303 78.053V78.0368C989.303 77.1674 989.888 76.6961 991.221 76.6149L993.561 76.4686V77.2649C993.561 78.5162 992.513 79.4587 991.075 79.4587C990.059 79.4587 989.303 78.9387 989.303 78.053ZM997.559 83.4564H998.972V79.1499H999.102C999.582 80.0844 1000.63 80.6856 1001.83 80.6856C1004.06 80.6856 1005.51 78.9062 1005.51 76.1598V76.1436C1005.51 73.4135 1004.05 71.6178 1001.83 71.6178C1000.61 71.6178 999.639 72.1947 999.102 73.1697H998.972V71.7722H997.559V83.4564ZM1001.51 79.4343C999.915 79.4343 998.94 78.183 998.94 76.1598V76.1436C998.94 74.1204 999.915 72.8691 1001.51 72.8691C1003.11 72.8691 1004.06 74.1041 1004.06 76.1436V76.1598C1004.06 78.1993 1003.11 79.4343 1001.51 79.4343Z" fill="#424245"/>
<path d="M1259.23 80.8075C1262.13 80.8075 1263.87 79.0524 1263.87 76.5011V68.8064H1262.41V76.4036C1262.41 78.2074 1261.26 79.4587 1259.23 79.4587C1257.19 79.4587 1256.02 78.2074 1256.02 76.4036V68.8064H1254.56V76.5011C1254.56 79.0524 1256.32 80.8075 1259.23 80.8075ZM1266.67 80.5312H1268.08V75.3473C1268.08 73.8116 1268.97 72.8691 1270.37 72.8691C1271.76 72.8691 1272.41 73.6247 1272.41 75.2011V80.5312H1273.83V74.8598C1273.83 72.7797 1272.73 71.6178 1270.76 71.6178C1269.47 71.6178 1268.65 72.1622 1268.21 73.0885H1268.08V71.7722H1266.67V80.5312ZM1277.13 70.0821C1277.67 70.0821 1278.11 69.6433 1278.11 69.1071C1278.11 68.5708 1277.67 68.132 1277.13 68.132C1276.6 68.132 1276.16 68.5708 1276.16 69.1071C1276.16 69.6433 1276.6 70.0821 1277.13 70.0821ZM1276.42 80.5312H1277.83V71.7722H1276.42V80.5312ZM1283.61 80.5963C1283.89 80.5963 1284.15 80.5638 1284.43 80.515V79.3125C1284.17 79.3368 1284.03 79.345 1283.78 79.345C1282.87 79.345 1282.51 78.9306 1282.51 77.8987V72.9422H1284.43V71.7722H1282.51V69.5052H1281.05V71.7722H1279.67V72.9422H1281.05V78.2562C1281.05 79.93 1281.81 80.5963 1283.61 80.5963ZM1289.99 80.6856C1292.05 80.6856 1293.3 79.5156 1293.6 78.3293L1293.62 78.2643H1292.21L1292.17 78.3374C1291.94 78.8656 1291.21 79.4262 1290.02 79.4262C1288.46 79.4262 1287.46 78.3699 1287.42 76.558H1293.73V76.0055C1293.73 73.3891 1292.28 71.6178 1289.9 71.6178C1287.52 71.6178 1285.97 73.4704 1285.97 76.1761V76.1842C1285.97 78.9306 1287.49 80.6856 1289.99 80.6856ZM1289.89 72.8772C1291.18 72.8772 1292.14 73.6979 1292.29 75.4286H1287.44C1287.6 73.7629 1288.59 72.8772 1289.89 72.8772ZM1299.15 80.6856C1300.37 80.6856 1301.35 80.1087 1301.88 79.1337H1302.01V80.5312H1303.43V68.2945H1302.01V73.1535H1301.88C1301.4 72.2191 1300.36 71.6178 1299.15 71.6178C1296.93 71.6178 1295.48 73.3972 1295.48 76.1436V76.1598C1295.48 78.8899 1296.94 80.6856 1299.15 80.6856ZM1299.48 79.4343C1297.88 79.4343 1296.93 78.1993 1296.93 76.1598V76.1436C1296.93 74.1041 1297.88 72.8691 1299.48 72.8691C1301.07 72.8691 1302.05 74.1204 1302.05 76.1436V76.1598C1302.05 78.183 1301.07 79.4343 1299.48 79.4343ZM1314.84 80.8075C1317.46 80.8075 1319.17 79.4425 1319.17 77.2486V77.2405C1319.17 75.5504 1318.21 74.5673 1315.76 74.0229L1314.46 73.7304C1312.87 73.381 1312.23 72.7472 1312.23 71.8128V71.8047C1312.23 70.5778 1313.36 69.8871 1314.82 69.879C1316.35 69.8709 1317.32 70.6346 1317.48 71.6665L1317.5 71.7722H1318.96L1318.95 71.6584C1318.83 69.9115 1317.2 68.5302 1314.86 68.5302C1312.44 68.5302 1310.74 69.9034 1310.73 71.8453V71.8534C1310.73 73.5516 1311.75 74.6323 1314.1 75.1523L1315.4 75.4367C1317 75.7942 1317.68 76.4605 1317.68 77.4355V77.4436C1317.68 78.6381 1316.52 79.4587 1314.92 79.4587C1313.23 79.4587 1312.02 78.7193 1311.91 77.5493L1311.9 77.4599H1310.44L1310.45 77.5493C1310.62 79.4587 1312.28 80.8075 1314.84 80.8075ZM1324.55 80.5963C1324.82 80.5963 1325.09 80.5638 1325.37 80.515V79.3125C1325.11 79.3368 1324.97 79.345 1324.72 79.345C1323.81 79.345 1323.45 78.9306 1323.45 77.8987V72.9422H1325.37V71.7722H1323.45V69.5052H1321.99V71.7722H1320.6V72.9422H1321.99V78.2562C1321.99 79.93 1322.74 80.5963 1324.55 80.5963ZM1329.88 80.6856C1331.06 80.6856 1331.98 80.1737 1332.53 79.2393H1332.66V80.5312H1334.08V74.5348C1334.08 72.7147 1332.88 71.6178 1330.74 71.6178C1328.88 71.6178 1327.54 72.5441 1327.32 73.9173L1327.31 73.966H1328.72L1328.73 73.9416C1328.96 73.2591 1329.65 72.8691 1330.7 72.8691C1332 72.8691 1332.66 73.4541 1332.66 74.5348V75.3311L1330.15 75.4854C1328.11 75.6073 1326.96 76.5092 1326.96 78.0693V78.0855C1326.96 79.6781 1328.22 80.6856 1329.88 80.6856ZM1328.4 78.053V78.0368C1328.4 77.1674 1328.99 76.6961 1330.32 76.6149L1332.66 76.4686V77.2649C1332.66 78.5162 1331.61 79.4587 1330.18 79.4587C1329.16 79.4587 1328.4 78.9387 1328.4 78.053ZM1339.77 80.5963C1340.05 80.5963 1340.32 80.5638 1340.59 80.515V79.3125C1340.33 79.3368 1340.19 79.345 1339.94 79.345C1339.03 79.345 1338.67 78.9306 1338.67 77.8987V72.9422H1340.59V71.7722H1338.67V69.5052H1337.21V71.7722H1335.83V72.9422H1337.21V78.2562C1337.21 79.93 1337.97 80.5963 1339.77 80.5963ZM1346.15 80.6856C1348.21 80.6856 1349.47 79.5156 1349.77 78.3293L1349.78 78.2643H1348.37L1348.34 78.3374C1348.1 78.8656 1347.37 79.4262 1346.18 79.4262C1344.62 79.4262 1343.62 78.3699 1343.58 76.558H1349.89V76.0055C1349.89 73.3891 1348.44 71.6178 1346.06 71.6178C1343.68 71.6178 1342.14 73.4704 1342.14 76.1761V76.1842C1342.14 78.9306 1343.65 80.6856 1346.15 80.6856ZM1346.05 72.8772C1347.34 72.8772 1348.3 73.6979 1348.45 75.4286H1343.61C1343.76 73.7629 1344.75 72.8772 1346.05 72.8772ZM1355.09 80.6856C1357.08 80.6856 1358.6 79.605 1358.6 78.0449V78.0287C1358.6 76.7774 1357.8 76.0623 1356.15 75.6642L1354.8 75.3392C1353.77 75.0873 1353.33 74.7135 1353.33 74.1204V74.1041C1353.33 73.3322 1354.1 72.796 1355.14 72.796C1356.19 72.796 1356.88 73.2754 1357.06 73.966H1358.45C1358.26 72.536 1356.98 71.6178 1355.14 71.6178C1353.28 71.6178 1351.89 72.7147 1351.89 74.1691V74.1773C1351.89 75.4367 1352.63 76.1517 1354.27 76.5417L1355.62 76.8667C1356.7 77.1267 1357.15 77.5411 1357.15 78.1343V78.1505C1357.15 78.9468 1356.31 79.5075 1355.14 79.5075C1354.02 79.5075 1353.32 79.0281 1353.08 78.2968H1351.63C1351.8 79.7431 1353.14 80.6856 1355.09 80.6856Z" fill="#424245"/>
</svg>
